<?xml version="1.0" encoding="UTF-8"?>
<svg width="600" height="575" version="1.1" xmlns="http://www.w3.org/2000/svg">
 <path d="m334.42 398.68-135.63-111.18 41.596-34.903 136.12 110.77c7.9308 6.6899 15.368 14.114 20.944 22.864 7.7538 12.167 11.652 26.673 11.531 41.1-0.15382 18.436-6.8957 36.729-18.641 50.94-12.132 14.679-29.094 24.737-46.906 31.475-13.884 5.252-28.586 8.6661-43.429 8.6892-14.837 0.0232-29.545-3.3435-43.429-8.5738-17.822-6.7136-34.779-16.79-46.906-31.475-11.74-14.215-18.486-32.504-18.641-50.94-0.12159-14.427 3.7772-28.933 11.531-41.1 5.5764-8.7496 13.013-16.174 20.944-22.864l20.141-16.9 41.632 34.933-19.69 17.167c-9.0238 7.436-14.088 17.491-14.088 27.97-1e-5 21.922 21.716 39.694 48.505 39.694 26.788 0 48.505-17.772 48.505-39.694 0-10.48-5.0644-20.535-14.088-27.971z" fill="#da2423" />
 <path d="m37.71 481.42c0 30.989 25.122 56.111 56.111 56.111 137.26-7e-3 274.53-0.0159 411.79 0 30.989 0 56.111-25.122 56.111-56.111 0.1924-129.28 0.38501-258.56 0.57742-387.84 0-30.989-25.122-56.111-56.111-56.111-137.26 0.0162-274.53 7e-3 -411.79 0-30.989 0-56.111 25.122-56.111 56.111-0.19247 129.28-0.38495 258.56-0.57742 387.84zm-27.127-387.87c0-46.274 37.513-83.787 83.787-83.787h411.85c46.274 0 83.787 37.513 83.787 83.787-0.17554 129.3-0.37723 258.6-0.57741 387.9 0 46.274-37.513 83.787-83.787 83.787h-411.85c-46.274 0-83.787-37.513-83.787-83.787 0.17498-129.3 0.37698-258.6 0.57741-387.9z" />
 <path d="m265.59 176.32 135.63 111.18-41.596 34.903-136.12-110.77c-7.9308-6.6899-15.368-14.114-20.944-22.864-7.7538-12.167-11.652-26.673-11.531-41.1 0.15382-18.436 6.8957-36.729 18.641-50.94 12.132-14.679 29.094-24.737 46.906-31.475 13.884-5.252 28.586-8.6661 43.429-8.6892 14.837-0.0231 29.545 3.3435 43.429 8.5738 17.822 6.7136 34.779 16.79 46.906 31.475 11.74 14.215 18.486 32.504 18.641 50.94 0.1215 14.427-3.7772 28.933-11.531 41.1-5.5764 8.7496-13.013 16.174-20.944 22.864l-20.141 16.9-41.632-34.933 19.69-17.167c9.0238-7.436 14.088-17.491 14.088-27.97 2e-5 -21.922-21.716-39.694-48.505-39.694-26.788 0-48.505 17.772-48.505 39.694 0 10.48 5.0644 20.535 14.088 27.971z" fill="#00569d" />
</svg>
